<svg width="25" height="25" viewBox="0 0 25 25" fill="none" xmlns="http://www.w3.org/2000/svg">
<path d="M24.71 10.3577H23.7273V10.3071H12.7473V15.1871H19.6421C18.6362 18.0278 15.9333 20.0671 12.7473 20.0671C8.70487 20.0671 5.42735 16.7895 5.42735 12.7471C5.42735 8.70462 8.70487 5.4271 12.7473 5.4271C14.6133 5.4271 16.3109 6.13104 17.6035 7.28089L21.0543 3.83013C18.8754 1.79944 15.9608 0.547119 12.7473 0.547119C6.0099 0.547119 0.547363 6.00965 0.547363 12.7471C0.547363 19.4845 6.0099 24.947 12.7473 24.947C19.4848 24.947 24.9473 19.4845 24.9473 12.7471C24.9473 11.9291 24.8631 11.1306 24.71 10.3577Z" fill="#FFC107"/>
<path d="M1.95361 7.06863L5.96191 10.0082C7.04649 7.323 9.67314 5.42713 12.7469 5.42713C14.6129 5.42713 16.3105 6.13106 17.6031 7.28091L21.0539 3.83015C18.875 1.79947 15.9604 0.547142 12.7469 0.547142C8.06091 0.547142 3.99711 3.1927 1.95361 7.06863Z" fill="#FF3D00"/>
<path d="M12.7472 24.9471C15.8985 24.9471 18.7618 23.7412 20.9267 21.78L17.1508 18.5848C15.8848 19.5477 14.3378 20.0684 12.7472 20.0671C9.57404 20.0671 6.87967 18.0438 5.86464 15.2201L1.88623 18.2853C3.90532 22.2363 8.00573 24.9471 12.7472 24.9471Z" fill="#4CAF50"/>
<path d="M24.7102 10.3578H23.7275V10.3072H12.7476V15.1872H19.6424C19.1612 16.5392 18.2945 17.7206 17.1493 18.5855L17.1511 18.5842L20.927 21.7794C20.6598 22.0222 24.9475 18.8471 24.9475 12.7472C24.9475 11.9292 24.8633 11.1307 24.7102 10.3578Z" fill="#1976D2"/>
</svg>
